<svg width="163" height="50" viewBox="0 0 163 50" fill="none" xmlns="http://www.w3.org/2000/svg">
<path d="M0.0116586 16.3349C-0.233821 11.6276 3.42692 7.61487 8.18815 7.37218L152.589 0.0115264C157.351 -0.231171 161.409 3.38808 161.655 8.09534L162.988 33.6651C163.234 38.3724 159.573 42.3851 154.812 42.6278L10.4106 49.9885C5.64932 50.2312 1.59058 46.6119 1.3451 41.9047L0.0116586 16.3349Z" fill="#2D2D2D"/>
<path d="M29.3153 32.6885L28.7864 22.5459L32.1054 22.3767L32.6344 32.5193L29.3153 32.6885ZM25.468 29.3594L25.3058 26.2485L35.9311 25.7068L36.0934 28.8178L25.468 29.3594Z" fill="white"/>
<path d="M39.0387 34.5858L38.4364 23.0367L50.5058 22.4215L51.108 33.9705L47.0346 34.1782L46.5546 24.973L47.5053 25.8005L41.7939 26.0917L42.632 25.173L43.1121 34.3781L39.0387 34.5858Z" fill="white"/>
<path d="M59.6626 33.7268C58.3838 33.7919 57.2353 33.5941 56.2173 33.1332C55.1992 32.6724 54.3794 32.0091 53.758 31.1435C53.1503 30.2629 52.816 29.2402 52.7553 28.0753C52.6945 26.9105 52.921 25.8663 53.4347 24.9428C53.9627 24.0186 54.7095 23.2826 55.675 22.7349C56.6397 22.1729 57.7615 21.8594 59.0403 21.7942C60.3191 21.729 61.4675 21.9269 62.4856 22.3877C63.5173 22.8336 64.3366 23.4898 64.9437 24.3562C65.5507 25.2225 65.8846 26.2382 65.9454 27.403C66.0061 28.5678 65.78 29.6191 65.267 30.5568C64.7533 31.4803 64.0069 32.2234 63.0278 32.7861C62.0631 33.348 60.9413 33.6616 59.6626 33.7268ZM59.4948 30.5092C59.9689 30.4851 60.38 30.3573 60.7281 30.1259C61.0906 29.8938 61.3689 29.5662 61.5629 29.1433C61.7562 28.7061 61.8377 28.1964 61.8073 27.6139C61.7769 27.0315 61.6436 26.5469 61.4073 26.1601C61.1703 25.7592 60.8595 25.4617 60.4748 25.2676C60.1045 25.0729 59.6822 24.9876 59.2081 25.0117C58.7483 25.0352 58.3372 25.1629 57.9747 25.3951C57.6266 25.6265 57.3484 25.954 57.1399 26.3777C56.9452 26.7864 56.863 27.282 56.8933 27.8644C56.9237 28.4468 57.0578 28.9456 57.2955 29.3608C57.5469 29.7611 57.8577 30.0586 58.2281 30.2533C58.6127 30.4474 59.035 30.5327 59.4948 30.5092Z" fill="white"/>
<path d="M75.9691 30.93L75.6269 24.3671L72.5018 24.5264L72.5165 25.6366C72.5166 26.1921 72.5081 26.7195 72.4909 27.2189C72.4874 27.7033 72.4385 28.1474 72.3443 28.551C72.2501 28.9546 72.1026 29.304 71.9019 29.599C71.7005 29.8799 71.4235 30.0935 71.0709 30.2396L67.0344 29.9113C67.4224 29.8915 67.7329 29.7688 67.966 29.5433C68.2128 29.3028 68.3977 28.9801 68.5206 28.575C68.6436 28.1699 68.7204 27.7102 68.7512 27.1959C68.7957 26.6666 68.8171 26.11 68.8154 25.5262L68.7563 21.4912L79.5541 20.9408L80.0641 30.7213L75.9691 30.93ZM66.9398 35.5564L66.6465 29.931L81.6039 29.1686L81.8972 34.794L78.104 34.9873L77.9795 32.6008L70.6301 32.9754L70.7546 35.3619L66.9398 35.5564Z" fill="white"/>
<path d="M90.451 31.9651L90.3387 29.813L90.0308 29.2945L89.8241 25.3312C89.7908 24.692 89.5641 24.2121 89.144 23.8917C88.7375 23.5564 88.1032 23.4106 87.2411 23.4546C86.6808 23.4832 86.118 23.6044 85.5529 23.8184C84.9871 24.0181 84.5112 24.2845 84.1251 24.6176L82.6024 21.9391C83.2411 21.4793 84.0144 21.1123 84.9221 20.8381C85.8434 20.549 86.7639 20.381 87.6835 20.3342C89.5801 20.2375 91.0682 20.596 92.1479 21.4098C93.2413 22.2087 93.8357 23.5244 93.9313 25.3569L94.2658 31.7706L90.451 31.9651ZM87.0126 32.3326C86.0786 32.3802 85.2802 32.2643 84.6174 31.9847C83.9545 31.7051 83.4366 31.3042 83.0636 30.782C82.705 30.2591 82.5082 29.6637 82.4734 28.9961C82.4364 28.2858 82.5841 27.6658 82.9167 27.1361C83.2628 26.5915 83.8096 26.1648 84.5571 25.8561C85.3038 25.5331 86.2806 25.3409 87.4875 25.2794L90.2463 25.1388L90.3563 27.2483L88.1579 27.3603C87.497 27.394 87.0356 27.5244 86.7737 27.7514C86.5262 27.9776 86.4117 28.2683 86.4302 28.6235C86.4487 28.9786 86.6 29.2558 86.8841 29.4549C87.1682 29.6541 87.5474 29.7416 88.0215 29.7174C88.4669 29.6947 88.8637 29.5677 89.2118 29.3363C89.5735 29.09 89.8287 28.7351 89.9774 28.2717L90.6156 29.7348C90.4416 30.5412 90.0492 31.1666 89.4385 31.6108C88.8414 32.04 88.0327 32.2806 87.0126 32.3326Z" fill="white"/>
<path d="M104.089 31.4622C103.097 31.5127 102.238 31.3429 101.512 30.9526C100.785 30.5481 100.212 29.9221 99.7935 29.0746C99.3884 28.2122 99.1502 27.0991 99.0791 25.7354C99.0073 24.3575 99.1212 23.2265 99.4208 22.3424C99.7197 21.444 100.203 20.7642 100.87 20.3029C101.552 19.8409 102.418 19.5831 103.466 19.5296C104.53 19.4754 105.505 19.675 106.393 20.1282C107.295 20.5665 108.021 21.2203 108.57 22.0896C109.133 22.944 109.447 23.982 109.51 25.2037C109.574 26.4254 109.371 27.4968 108.9 28.4182C108.444 29.3387 107.79 30.0629 106.939 30.5905C106.102 31.1174 105.152 31.408 104.089 31.4622ZM96.9449 35.7788L96.127 20.096L100.028 19.8972L100.13 21.8575L100.308 25.6728L100.723 29.4973L101.04 35.5701L96.9449 35.7788ZM103.059 28.2886C103.519 28.2652 103.923 28.1378 104.271 27.9064C104.633 27.6742 104.911 27.3467 105.105 26.9238C105.314 26.5001 105.403 25.997 105.372 25.4146C105.342 24.8322 105.201 24.3409 104.95 23.9406C104.713 23.5397 104.402 23.2422 104.017 23.0481C103.647 22.8533 103.232 22.7677 102.772 22.7911C102.312 22.8145 101.901 22.9423 101.539 23.1745C101.191 23.4058 100.912 23.7334 100.704 24.1571C100.51 24.58 100.428 25.0827 100.458 25.6651C100.489 26.2475 100.623 26.7392 100.86 27.1402C101.111 27.5404 101.422 27.8379 101.792 28.0327C102.177 28.2268 102.599 28.3121 103.059 28.2886Z" fill="white"/>
<path d="M117.543 30.7764C116.264 30.8416 115.115 30.6437 114.097 30.1829C113.079 29.722 112.26 29.0588 111.638 28.1931C111.03 27.3125 110.696 26.2898 110.635 25.125C110.575 23.9601 110.801 22.916 111.315 21.9925C111.843 21.0682 112.59 20.3322 113.555 19.7845C114.52 19.2226 115.642 18.909 116.92 18.8438C118.199 18.7787 119.348 18.9765 120.366 19.4374C121.397 19.8833 122.217 20.5394 122.824 21.4058C123.431 22.2722 123.765 23.2878 123.825 24.4526C123.886 25.6175 123.66 26.6688 123.147 27.6065C122.633 28.53 121.887 29.2731 120.908 29.8357C119.943 30.3977 118.821 30.7112 117.543 30.7764ZM117.375 27.5589C117.849 27.5347 118.26 27.4069 118.608 27.1755C118.971 26.9434 119.249 26.6159 119.443 26.1929C119.636 25.7558 119.718 25.246 119.687 24.6636C119.657 24.0812 119.524 23.5966 119.287 23.2098C119.05 22.8088 118.74 22.5113 118.355 22.3173C117.985 22.1225 117.562 22.0372 117.088 22.0614C116.628 22.0848 116.217 22.2126 115.855 22.4447C115.507 22.6761 115.228 23.0036 115.02 23.4273C114.825 23.8361 114.743 24.3316 114.773 24.9141C114.804 25.4965 114.938 25.9953 115.176 26.4105C115.427 26.8107 115.738 27.1082 116.108 27.303C116.493 27.497 116.915 27.5823 117.375 27.5589Z" fill="white"/>
<path d="M134.238 29.7331L130.401 24.5234L133.598 22.4376L139.066 29.487L134.238 29.7331ZM126.048 30.1506L125.446 18.6015L129.541 18.3928L130.143 29.9418L126.048 30.1506ZM128.722 25.8909L128.556 22.716L132.78 22.5006L132.946 25.6755L128.722 25.8909ZM134.111 24.3984L130.255 24.2104L133.873 18.172L138.205 17.9512L134.111 24.3984Z" fill="white"/>
</svg>
